# xmcd CD database file
#
# Track frame offsets:
#	150
#	10821
#	28698
#	40960
#	44302
#	57502
#	61675
#	70054
#	87579
#	100752
#	128320
#	139259
#
# Disc length: 1903 seconds
#
# Revision: 0
# Processed by: cddbd v1.5.2PL0 Copyright (c) Steve Scherf et al.
# Submitted via: CDex 1.51
#
DISCID=9b076d0c
DTITLE=Hansson and Karlsson - Man at the Moon
DYEAR=1967
DGENRE=Jazz
TTITLE0=Pick-Up
TTITLE1=Lift-Off
TTITLE2=Space
TTITLE3=Time
TTITLE4=Brain
TTITLE5=Discovering
TTITLE6=In the Beginning
TTITLE7=Peace on Earth
TTITLE8=Cosmos
TTITLE9=Space
TTITLE10=Life
TTITLE11=Cordially Yours
EXTD=YEAR: 1967
EXTT0=
EXTT1=
EXTT2=
EXTT3=
EXTT4=
EXTT5=
EXTT6=
EXTT7=
EXTT8=
EXTT9=
EXTT10=
EXTT11=
PLAYORDER=
